# xmcd
#
# Track frame offsets:
#	150
#	19947
#	37242
#	53062
#	72485
#	88325
#	107280
#	126725
#	143550
#	162760
#	180407
#	198245
#	214617
#	235220
#	252690
#	273050
#
# Disc length: 3880 seconds
#
# Revision: 1
# Processed by: cddbd v1.5.1PL0 Copyright (c) Steve Scherf et al.
# Submitted via: CDex 1.50Beta5
#
DISCID=e80f2610
DTITLE=川中美幸 - 決定版! 魅惑のデュエット全曲集
DYEAR=1999
DGENRE=World
TTITLE0=川中美幸/二輪草
TTITLE1=天童よしみ/北のともしび
TTITLE2=石原裕次郎/別れの夜明け
TTITLE3=増位山太志郎/もしかしてPartII
TTITLE4=日野美歌/3年目の浮気
TTITLE5=増位山太志郎/東京砂漠のかたすみで
TTITLE6=藤田まこと/浪花恋しぐれ
TTITLE7=八代亜紀/別れても好きな人
TTITLE8=石原裕次郎/銀座の恋の物語
TTITLE9=石原裕次郎/東京ナイトクラブ
TTITLE10=川中美幸/ふたりの大阪
TTITLE11=増位山太志郎/居酒屋
TTITLE12=香田晋/櫂
TTITLE13=川中美幸/今夜は乾杯
TTITLE14=杉良太郎/元・恋人同志
TTITLE15=前田吟/男と女のラブゲーム
EXTD=
EXTT0=
EXTT1=
EXTT2=
EXTT3=
EXTT4=
EXTT5=
EXTT6=
EXTT7=
EXTT8=
EXTT9=
EXTT10=
EXTT11=
EXTT12=
EXTT13=
EXTT14=
EXTT15=
PLAYORDER=
